<?xml version="1.0" standalone="no"?><!DOCTYPE svg PUBLIC "-//W3C//DTD SVG 1.1//EN" "http://www.w3.org/Graphics/SVG/1.1/DTD/svg11.dtd"><svg t="1580704406465" class="icon" viewBox="0 0 1024 1024" version="1.1" xmlns="http://www.w3.org/2000/svg" p-id="2494" width="16" height="16" xmlns:xlink="http://www.w3.org/1999/xlink"><defs><style type="text/css"></style></defs><path d="M496.309677 481.808516l-160.801032-166.482581a32.933161 32.933161 0 0 0-46.542451-0.660645 32.834065 32.834065 0 0 0-0.990968 46.575484l160.801032 166.482581-166.482581 160.768a32.933161 32.933161 0 0 0-0.660645 46.542451 32.834065 32.834065 0 0 0 46.575484 0.990968l166.482581-160.801032 160.768 166.482581a32.933161 32.933161 0 0 0 46.542451 0.660645 32.834065 32.834065 0 0 0 0.990968-46.575484l-160.801032-166.482581 166.482581-160.768a32.933161 32.933161 0 0 0 0.660645-46.542451 32.834065 32.834065 0 0 0-46.575484-0.990968l-166.482581 160.801032zM142.699355 869.177806c-190.100645-196.839226-184.61729-510.513548 12.221935-700.614193 196.872258-190.067613 510.546581-184.61729 700.614194 12.221935 190.100645 196.872258 184.650323 510.546581-12.221936 700.614194-196.872258 190.100645-510.513548 184.650323-700.614193-12.221936z" p-id="2495" fill="#FF0000"></path></svg>