<?xml version="1.0" standalone="no"?><!DOCTYPE svg PUBLIC "-//W3C//DTD SVG 1.1//EN" "http://www.w3.org/Graphics/SVG/1.1/DTD/svg11.dtd"><svg t="1580891374527" class="icon" viewBox="0 0 2265 1024" version="1.1" xmlns="http://www.w3.org/2000/svg" p-id="8028" width="70.78125" height="32" xmlns:xlink="http://www.w3.org/1999/xlink"><defs><style type="text/css"></style></defs><path d="M989.733722 512.088283c0 263.847178-213.932873 477.578132-477.780051 477.578133-263.732757 0-477.62076-213.730954-477.62076-477.578133 0-263.755193 213.888002-477.755372 477.62076-477.755372 263.847178 0 477.780051 214.000179 477.780051 477.755372zM2231.64372 512.088283c0 263.847178-213.775825 477.578132-477.620759 477.578133-263.667695 0-477.757616-213.730954-477.757616-477.578133 0-263.755193 214.089921-477.755372 477.757616-477.755372 263.844934 0 477.62076 214.000179 477.620759 477.755372z" fill="#A6C6CD" p-id="8029"></path><path d="M511.953671 1023.999327C229.671315 1023.999327 0 794.352691 0 512.088283 0 229.736377 229.671315 0 511.953671 0c282.376585 0 512.110719 229.736377 512.110719 512.088283 0 282.264408-229.734134 511.911044-512.110719 511.911044z m0-955.333504c-244.420355 0-443.287848 198.9348-443.287848 443.42246 0 244.400163 198.867494 443.245221 443.287848 443.245221 244.51234 0 443.44714-198.845058 443.44714-443.245221 0-244.487661-198.9348-443.422461-443.44714-443.42246zM1754.022961 1023.999327c-282.35415 0-512.090527-229.646636-512.090527-511.911044C1241.932434 229.736377 1471.668811 0 1754.020717 0 2036.287369 0 2265.976632 229.736377 2265.976632 512.088283c0 282.264408-229.691507 511.911044-511.953671 511.911044z m0-955.333504c-244.534775 0-443.422461 198.9348-443.422461 443.42246 0 244.400163 198.889929 443.245221 443.422461 443.245221 244.44279 0 443.290092-198.845058 443.290092-443.245221 0-244.487661-198.847302-443.422461-443.290092-443.42246z" fill="#826A5D" p-id="8030"></path><path d="M1254.673505 478.515933H1015.817132c-18.953436 0-34.330668-15.377232-34.330668-34.332912 0-18.95568 15.377232-34.332911 34.330668-34.332911h238.856373c18.953436 0 34.332911 15.377232 34.332911 34.332911 0 18.95568-15.379475 34.332911-34.332911 34.332912z" fill="#826A5D" p-id="8031"></path><path d="M230.496938 556.970325c-18.95568 0-34.332911-15.374988-34.332911-34.330667 0-192.006745 156.240211-348.249199 348.267147-348.249199 18.957923 0 34.335155 15.379475 34.335154 34.335155 0 18.953436-15.379475 34.330668-34.335154 34.330668-154.160448 0-279.603568 125.44312-279.603568 279.583376 0 18.95568-15.377232 34.330668-34.330668 34.330667zM1486.153113 556.970325c-18.957923 0-34.332911-15.374988-34.332911-34.330667 0-192.006745 156.197583-348.249199 348.246955-348.249199 18.953436 0 34.335155 15.379475 34.335155 34.335155 0 18.953436-15.381719 34.330668-34.335155 34.330668-154.140256 0-279.581133 125.44312-279.581132 279.583376 0 18.95568-15.377232 34.330668-34.332912 34.330667z" fill="#826A5D" p-id="8032"></path></svg>