<?xml version="1.0" standalone="no"?><!DOCTYPE svg PUBLIC "-//W3C//DTD SVG 1.1//EN" "http://www.w3.org/Graphics/SVG/1.1/DTD/svg11.dtd"><svg t="1580891492999" class="icon" viewBox="0 0 1024 1024" version="1.1" xmlns="http://www.w3.org/2000/svg" p-id="14063" width="128" height="128" xmlns:xlink="http://www.w3.org/1999/xlink"><defs><style type="text/css"></style></defs><path d="M834.871652 434.888348v238.814609c0 56.186435-263.657739 122.790957-322.871652 122.790956S189.128348 730.156522 189.128348 676.730435V434.888348c0-84.324174 241.574957-170.518261 322.871652-170.518261s322.871652 86.28313 322.871652 170.518261z" fill="#FFBCA1" p-id="14064"></path><path d="M512 816.617739c-33.747478 0-118.784-18.342957-189.751652-40.96C184.943304 731.937391 169.182609 698.10087 169.182609 676.730435V434.888348c0-102.66713 261.431652-190.553043 342.906434-190.553044S854.817391 332.310261 854.817391 434.888348v238.814609C854.817391 756.869565 553.22713 816.617739 512 816.617739z m0-532.123826c-33.747478 0-109.612522 17.808696-183.607652 51.823304s-119.229217 71.234783-119.229218 98.660174V676.730435c1.869913 6.233043 29.384348 31.165217 131.784348 63.042782 71.234783 22.171826 145.942261 37.042087 171.141565 37.042087s101.687652-15.226435 173.100522-37.932521c102.043826-32.411826 128.578783-58.501565 129.736348-65.090783V434.888348c0-27.425391-45.679304-65.179826-119.229217-98.660174s-149.949217-51.734261-183.696696-51.734261z" fill="#66443B" p-id="14065"></path><path d="M572.460522 557.234087H451.539478a26.713043 26.713043 0 0 1 0-53.426087h120.921044a26.713043 26.713043 0 0 1 0 53.426087z" fill="#FFFFFF" p-id="14066"></path><path d="M512 617.605565a26.713043 26.713043 0 0 1-26.713043-26.713043V470.060522a26.713043 26.713043 0 0 1 53.426086 0v120.832a26.713043 26.713043 0 0 1-26.713043 26.713043z" fill="#FFFFFF" p-id="14067"></path><path d="M203.909565 720.183652a19.945739 19.945739 0 0 1-12.288-4.185043C90.112 637.284174 36.151652 526.60313 26.713043 377.633391 20.301913 276.925217 69.721043 237.033739 99.639652 222.608696c54.049391-26.713043 125.284174-14.246957 157.874087 14.068869A501.938087 501.938087 0 0 1 325.632 311.652174a20.034783 20.034783 0 0 1-32.50087 23.418435A468.457739 468.457739 0 0 0 231.513043 266.596174c-19.589565-17.274435-73.549913-28.493913-114.064695-8.370087-37.309217 17.808696-54.494609 58.590609-50.754783 116.914087 8.904348 138.729739 56.275478 237.033739 149.593044 309.248a20.034783 20.034783 0 0 1-12.288 35.617391zM820.090435 720.183652a20.034783 20.034783 0 0 1-12.288-35.617391c93.228522-72.214261 140.777739-170.518261 149.593043-309.248 3.650783-58.501565-13.534609-99.283478-50.843826-117.092174-40.514783-20.034783-94.47513-8.904348-114.064695 8.370087a468.457739 468.457739 0 0 0-61.885218 68.118261A20.034783 20.034783 0 0 1 698.368 311.652174a501.938087 501.938087 0 0 1 68.029217-74.885565C799.076174 208.005565 870.221913 195.895652 924.360348 222.608696c30.007652 14.781217 79.337739 54.672696 73.015652 155.380869-9.438609 148.969739-63.398957 259.650783-164.997565 338.365218a19.945739 19.945739 0 0 1-12.288 3.828869z" fill="#66443B" p-id="14068"></path></svg>