<?xml version="1.0" standalone="no"?><!DOCTYPE svg PUBLIC "-//W3C//DTD SVG 1.1//EN" "http://www.w3.org/Graphics/SVG/1.1/DTD/svg11.dtd"><svg t="1580728013256" class="icon" viewBox="0 0 1024 1024" version="1.1" xmlns="http://www.w3.org/2000/svg" p-id="3659" width="128" height="128" xmlns:xlink="http://www.w3.org/1999/xlink"><defs><style type="text/css"></style></defs><path d="M380.316526 152.761783l-13.784503-13.784503 105.501257-105.501257c21.467429-21.467429 56.17664-21.732206 77.961509-0.643657l0.652434 0.643657 105.50272 105.501257-12.413806 12.412343 227.55328 227.554743 12.413806-12.412343 105.501257 105.501257c21.467429 21.467429 21.732206 56.17664 0.59392 78.011246l-0.59392 0.602697-105.501257 105.501257-11.043109-11.041646-227.55328 227.55328 11.041646 11.044572-105.501257 105.501257c-21.465966 21.465966-56.17664 21.730743-78.011246 0.592457l-0.602697-0.59392-105.501257-105.501257 12.412343-12.413806-227.554743-227.55328-12.41088 12.413806-105.50272-105.501257c-21.467429-21.467429-21.732206-56.178103-0.592457-78.014172l0.592457-0.599771 105.501257-105.50272 13.784503 13.784503 227.554743-227.554743z m156.993828-107.768686c-14.926994-13.96736-38.331246-13.636754-52.864731 0.895269L391.358171 138.97728l13.784503 13.784503-252.379428 252.379428-13.784503-13.784502-93.037714 93.037714-0.494446 0.50176c-14.423771 14.900663-14.24384 38.651611 0.443246 53.338697l93.088914 93.088914 12.412343-12.415268 252.379428 252.380891-12.412343 12.413806 93.037715 93.037714 0.50176 0.494446c14.900663 14.425234 38.651611 14.24384 53.338697-0.443246l93.088914-93.088914-11.041646-11.044572 252.377966-252.376502 11.043109 11.041645 93.037714-93.037714 0.494446-0.50176c14.425234-14.900663 14.24384-38.651611-0.443246-53.338697l-93.088914-93.088914-12.413806 12.412342-252.380891-252.379428 12.415268-12.412343-93.037714-93.037714-0.526629-0.517852-0.449097-0.427154z" fill="#91000A" p-id="3660"></path><path d="M53.467429 492.023223L492.02176 53.467429c11.424914-11.424914 29.950537-11.424914 41.376914 0l438.557257 438.557257c11.424914 11.424914 11.424914 29.950537 0 41.376914L533.400137 971.957394c-11.424914 11.424914-29.950537 11.424914-41.376914 0L53.467429 533.400137c-11.424914-11.424914-11.424914-29.950537 0-41.376914z" fill="#D8000F" p-id="3661"></path><path d="M53.467429 492.023223L492.02176 53.467429c11.424914-11.424914 29.950537-11.424914 41.376914 0l438.557257 438.557257c11.424914 11.424914 11.424914 29.950537 0 41.376914L533.400137 971.957394c-11.424914 11.424914-29.950537 11.424914-41.376914 0L53.467429 533.400137c-11.424914-11.424914-11.424914-29.950537 0-41.376914z" fill="#D8000F" p-id="3662"></path><path d="M53.467429 492.023223L492.02176 53.467429c11.424914-11.424914 29.950537-11.424914 41.376914 0l438.557257 438.557257c11.424914 11.424914 11.424914 29.950537 0 41.376914L533.400137 971.957394c-11.424914 11.424914-29.950537 11.424914-41.376914 0L53.467429 533.400137c-11.424914-11.424914-11.424914-29.950537 0-41.376914z" fill="#D8000F" p-id="3663"></path><path d="M404.424411 167.438629l99.295818-99.295818a11.702857 11.702857 0 0 1 16.550765 0l99.294355 99.295818 24.824685-24.824686-99.294354-99.295817c-18.281326-18.281326-47.920274-18.281326-66.2016 0L379.599726 142.613943l24.824685 24.824686z" fill="#FFE400" p-id="3664"></path><path d="M478.895543 43.318126c18.279863-18.281326 47.918811-18.281326 66.200137 0l99.295817 99.295817-3.657143 3.657143-95.638674-95.638675c-18.281326-18.281326-47.920274-18.281326-66.2016 0l-95.637211 95.637212-3.657143-3.657143z" fill="#FFA700" p-id="3665"></path><path d="M404.424411 859.838171l99.295818 99.294355a11.702857 11.702857 0 0 0 16.550765 0l99.294355-99.295817 24.824685 24.824685-99.294354 99.295817c-18.281326 18.281326-47.920274 18.281326-66.2016 0l-99.294354-99.294354 24.824685-24.824686z" fill="#FFE400" p-id="3666"></path><path d="M478.895543 983.957211c18.279863 18.281326 47.918811 18.281326 66.200137 0l99.295817-99.294354-3.657143-3.657143-95.638674 95.637212c-18.281326 18.281326-47.920274 18.281326-66.2016 0l-95.637211-95.637212-3.657143 3.657143z" fill="#FFA700" p-id="3667"></path><path d="M859.838171 403.704686l99.294355 99.295817a11.702857 11.702857 0 0 1 0 16.550766l-99.295817 99.295817 24.824685 24.824685 99.295817-99.294354c18.281326-18.281326 18.281326-47.921737 0-66.2016L884.662857 378.88l-24.824686 24.824686z" fill="#FFE400" p-id="3668"></path><path d="M983.957211 478.175817c18.281326 18.279863 18.281326 47.920274 0 66.2016L884.662857 643.671771l-3.657143-3.657142 95.637212-95.637212c18.281326-18.281326 18.281326-47.921737 0-66.2016L881.005714 382.537143l3.657143-3.657143z" fill="#FFA700" p-id="3669"></path><path d="M162.698971 403.704686l-99.294354 99.295817a11.702857 11.702857 0 0 0 0 16.550766l99.295817 99.295817-24.824685 24.824685-99.295818-99.294354c-18.281326-18.281326-18.281326-47.921737 0-66.2016L137.874286 378.88l24.824685 24.824686z" fill="#FFE400" p-id="3670"></path><path d="M38.579931 478.175817c-18.281326 18.279863-18.281326 47.920274 0 66.2016L137.874286 643.671771l3.657143-3.657142-95.637212-95.637212c-18.281326-18.281326-18.281326-47.921737 0-66.2016L141.531429 382.537143l-3.657143-3.657143z" fill="#FFA700" p-id="3671"></path><path d="M467.221943 707.790263v-38.498012H718.262857v38.498012H467.221943z m24.649143-62.790217v-106.788572h200.831268v106.788572H491.869623z m160.207725-72.414355H532.494629v38.0416h119.585645v-38.0416z m61.162058-60.957257H470.418286V299.885714h41.079954v16.95744h160.6656V299.885714h41.079954v211.744183zM511.49824 354.42688v43.081143h59.792823v-43.081143h-59.792823z m100.872777 0v43.081143h59.792823v-43.081143h-59.792823z m-100.872777 79.289783v41.706057h59.792823v-41.706057h-59.792823z m100.872777 41.706057h59.792823v-41.706057h-59.792823v41.706057z m-247.846034 2.292297c-14.605166-15.12448-30.124617-30.24896-47.01184-45.37344L304.274286 478.171429c54.315886 49.498697 90.831726 97.164434 110.001005 143.455085h-100.416365v41.706057h60.250697c-6.391223 17.876114-13.237394 35.291429-20.996389 52.248869l40.623543 11.45856c9.128229-22.915657 15.9744-44.456229 20.994926-63.707429h43.362011v-36.665051c-10.953874-32.999131-27.84256-65.538926-51.121005-97.622309 20.996389-13.749394 40.623543-29.331749 58.423588-46.289188L442.119314 447.005257c-11.866697 14.207269-23.734857 26.581577-35.601554 37.5808V300.345051h-41.992777v177.371429z" fill="#FFE400" p-id="3672"></path><path d="M512.185783 64.7168a11.661897 11.661897 0 0 1 7.789714 3.140754l0.295497 0.285257 99.294355 99.295818 13.902994-13.902995 238.268708 238.267246-11.900342 11.903269 99.295817 99.294354 0.285257 0.295497a11.702857 11.702857 0 0 1 0 15.959771l-0.285257 0.295498-7.817509 7.814582-91.478308-91.476845 11.900342-11.903269-238.268708-238.267246-13.902994 13.902995-99.294355-99.295817-0.295497-0.285258a11.661897 11.661897 0 0 0-7.789714-3.140754h-0.380343a11.661897 11.661897 0 0 0-7.789714 3.140754l-0.295497 0.285258-99.295818 99.295817-13.187657-13.187657-238.994285 238.997211 10.457965 10.457966-91.479771 91.476845-7.816046-7.814582a11.702857 11.702857 0 0 1-0.285257-16.255269l0.285257-0.295497 99.295817-99.294354-10.457965-10.457966 238.994285-238.997212 13.187657 13.187658 99.295818-99.295818 0.295497-0.285257a11.661897 11.661897 0 0 1 7.788251-3.140754h0.381806z" fill="#C40714" p-id="3673"></path></svg>