<?xml version="1.0" standalone="no"?><!DOCTYPE svg PUBLIC "-//W3C//DTD SVG 1.1//EN" "http://www.w3.org/Graphics/SVG/1.1/DTD/svg11.dtd"><svg t="1580891583500" class="icon" viewBox="0 0 1024 1024" version="1.1" xmlns="http://www.w3.org/2000/svg" p-id="15425" xmlns:xlink="http://www.w3.org/1999/xlink" width="128" height="128"><defs><style type="text/css"></style></defs><path d="M179.13344 358.76352l-133.13536-2.18624a7.68 7.68 0 0 1-7.552-7.80288l0.11264-6.91712a7.68 7.68 0 0 1 7.80288-7.552l133.13024 2.18624a7.68 7.68 0 0 1 7.552 7.80288l-0.11264 6.91712a7.67488 7.67488 0 0 1-7.79776 7.552zM178.64192 388.45952l-133.13024-2.18624a7.68 7.68 0 0 1-7.552-7.80288l0.11264-6.91712a7.68 7.68 0 0 1 7.80288-7.552l133.13024 2.18624a7.68 7.68 0 0 1 7.552 7.80288l-0.11264 6.91712a7.67488 7.67488 0 0 1-7.80288 7.552zM178.15552 418.16064l-133.13024-2.18624a7.68 7.68 0 0 1-7.552-7.80288l0.11264-6.91712a7.68 7.68 0 0 1 7.80288-7.552l133.13024 2.18624a7.68 7.68 0 0 1 7.552 7.80288l-0.11264 6.91712a7.68 7.68 0 0 1-7.80288 7.552zM177.66912 447.85664l-133.13536-2.18624a7.68 7.68 0 0 1-7.552-7.80288l0.11264-6.91712a7.68 7.68 0 0 1 7.80288-7.552l133.13024 2.18624a7.68 7.68 0 0 1 7.552 7.80288l-0.11264 6.91712a7.66976 7.66976 0 0 1-7.79776 7.552zM177.18272 477.55264l-133.13536-2.18624a7.68 7.68 0 0 1-7.552-7.80288l0.11264-6.91712a7.68 7.68 0 0 1 7.80288-7.552l133.13024 2.18624a7.68 7.68 0 0 1 7.552 7.80288l-0.11264 6.91712a7.66976 7.66976 0 0 1-7.79776 7.552zM131.32288 491.65312l-41.90208-0.68608a2.56 2.56 0 0 1-2.51904-2.60096l0.03584-2.304a2.56 2.56 0 0 1 2.60096-2.51904l41.90208 0.68608a2.56 2.56 0 0 1 2.51904 2.60096l-0.03584 2.304a2.56 2.56 0 0 1-2.60096 2.51904zM133.88288 335.73888l-41.90208-0.68608a2.56 2.56 0 0 1-2.51904-2.60096l0.03584-2.304a2.56 2.56 0 0 1 2.60096-2.51904l41.90208 0.68608a2.56 2.56 0 0 1 2.51904 2.60096l-0.03584 2.304a2.55488 2.55488 0 0 1-2.60096 2.51904z" fill="#FFDC7F" p-id="15426"></path><path d="M110.139942 506.132048a6.01088 5.71392 0.94 1 0 0.187478-11.426302 6.01088 5.71392 0.94 1 0-0.187478 11.426302Z" fill="#FFDC7F" p-id="15427"></path><path d="M113.176188 320.52164a6.01088 5.71392 0.94 1 0 0.187478-11.426302 6.01088 5.71392 0.94 1 0-0.187478 11.426302Z" fill="#FFDC7F" p-id="15428"></path><path d="M111.70304 497.59744c0.09216 46.76096-3.88096 53.91872-3.88096 53.91872l3.88096-53.91872zM115.1488 313.14944l-3.71712-0.06144 0.85504-51.97312 3.712 0.06144z" fill="#FFDC7F" p-id="15429"></path><path d="M993.21344 358.76352l-133.13024-2.18624a7.68 7.68 0 0 1-7.552-7.80288l0.11264-6.91712a7.68 7.68 0 0 1 7.80288-7.552l133.13024 2.18624a7.68 7.68 0 0 1 7.552 7.80288l-0.11264 6.91712a7.68 7.68 0 0 1-7.80288 7.552zM992.72192 388.45952l-133.13024-2.18624a7.68 7.68 0 0 1-7.552-7.80288l0.11264-6.91712a7.68 7.68 0 0 1 7.80288-7.552l133.13024 2.18624a7.68 7.68 0 0 1 7.552 7.80288l-0.11264 6.91712a7.67488 7.67488 0 0 1-7.80288 7.552zM992.23552 418.16064l-133.13024-2.18624a7.68 7.68 0 0 1-7.552-7.80288l0.11264-6.91712a7.68 7.68 0 0 1 7.80288-7.552l133.13024 2.18624a7.68 7.68 0 0 1 7.552 7.80288l-0.11264 6.91712a7.68 7.68 0 0 1-7.80288 7.552zM991.74912 447.85664l-133.13024-2.18624a7.68 7.68 0 0 1-7.552-7.80288l0.11264-6.91712a7.68 7.68 0 0 1 7.80288-7.552l133.13024 2.18624a7.68 7.68 0 0 1 7.552 7.80288l-0.11264 6.91712a7.68 7.68 0 0 1-7.80288 7.552zM991.26272 477.55264l-133.13024-2.18624a7.68 7.68 0 0 1-7.552-7.80288l0.11264-6.91712a7.68 7.68 0 0 1 7.80288-7.552l133.13024 2.18624a7.68 7.68 0 0 1 7.552 7.80288l-0.11264 6.91712a7.68 7.68 0 0 1-7.80288 7.552zM945.40288 491.65312l-41.90208-0.68608a2.56 2.56 0 0 1-2.51904-2.60096l0.03584-2.304a2.56 2.56 0 0 1 2.60096-2.51904l41.90208 0.68608a2.56 2.56 0 0 1 2.51904 2.60096l-0.03584 2.304a2.56 2.56 0 0 1-2.60096 2.51904zM947.96288 335.73888l-41.90208-0.68608a2.56 2.56 0 0 1-2.51904-2.60096l0.03584-2.304a2.56 2.56 0 0 1 2.60096-2.51904l41.90208 0.68608a2.56 2.56 0 0 1 2.51904 2.60096l-0.03584 2.304a2.55488 2.55488 0 0 1-2.60096 2.51904z" fill="#FFDC7F" p-id="15430"></path><path d="M924.174535 506.096129a6.01088 5.71392 0.94 1 0 0.187478-11.426302 6.01088 5.71392 0.94 1 0-0.187478 11.426302Z" fill="#FFDC7F" p-id="15431"></path><path d="M927.210697 320.495877a6.01088 5.71392 0.94 1 0 0.187478-11.426302 6.01088 5.71392 0.94 1 0-0.187478 11.426302Z" fill="#FFDC7F" p-id="15432"></path><path d="M925.78304 497.59744c0.09216 46.76096-3.88096 53.91872-3.88096 53.91872l3.88096-53.91872zM929.19808 313.1648l-3.712-0.06144 0.84992-51.97312 3.712 0.06144z" fill="#FFDC7F" p-id="15433"></path><path d="M285.1328 479.51872m-75.31008 0a75.31008 75.31008 0 1 0 150.62016 0 75.31008 75.31008 0 1 0-150.62016 0Z" fill="#FFDC7F" p-id="15434"></path><path d="M285.1328 556.1088c-42.23488 0-76.59008-34.36032-76.59008-76.59008s34.3552-76.59008 76.59008-76.59008 76.59008 34.36032 76.59008 76.59008-34.3552 76.59008-76.59008 76.59008z m0-150.62016c-40.82176 0-74.03008 33.20832-74.03008 74.03008s33.20832 74.03008 74.03008 74.03008 74.03008-33.20832 74.03008-74.03008-33.20832-74.03008-74.03008-74.03008z" fill="#FFA500" p-id="15435"></path><path d="M398.58176 479.51872m-75.31008 0a75.31008 75.31008 0 1 0 150.62016 0 75.31008 75.31008 0 1 0-150.62016 0Z" fill="#FFDC7F" p-id="15436"></path><path d="M398.58176 556.1088c-42.23488 0-76.59008-34.36032-76.59008-76.59008s34.3552-76.59008 76.59008-76.59008 76.59008 34.36032 76.59008 76.59008-34.36032 76.59008-76.59008 76.59008z m0-150.62016c-40.82176 0-74.03008 33.20832-74.03008 74.03008s33.20832 74.03008 74.03008 74.03008 74.03008-33.20832 74.03008-74.03008-33.21344-74.03008-74.03008-74.03008z" fill="#FFA500" p-id="15437"></path><path d="M512.0256 479.51872m-75.31008 0a75.31008 75.31008 0 1 0 150.62016 0 75.31008 75.31008 0 1 0-150.62016 0Z" fill="#FFDC7F" p-id="15438"></path><path d="M512.0256 556.1088c-42.23488 0-76.59008-34.36032-76.59008-76.59008s34.3552-76.59008 76.59008-76.59008c42.22976 0 76.59008 34.36032 76.59008 76.59008s-34.36032 76.59008-76.59008 76.59008z m0-150.62016c-40.82176 0-74.03008 33.20832-74.03008 74.03008s33.20832 74.03008 74.03008 74.03008 74.03008-33.20832 74.03008-74.03008-33.20832-74.03008-74.03008-74.03008z" fill="#FFA500" p-id="15439"></path><path d="M625.46944 479.51872m-75.31008 0a75.31008 75.31008 0 1 0 150.62016 0 75.31008 75.31008 0 1 0-150.62016 0Z" fill="#FFDC7F" p-id="15440"></path><path d="M625.46944 556.1088c-42.22976 0-76.59008-34.36032-76.59008-76.59008s34.36032-76.59008 76.59008-76.59008 76.59008 34.36032 76.59008 76.59008-34.36032 76.59008-76.59008 76.59008z m0-150.62016c-40.82176 0-74.03008 33.20832-74.03008 74.03008s33.20832 74.03008 74.03008 74.03008 74.03008-33.20832 74.03008-74.03008-33.20832-74.03008-74.03008-74.03008z" fill="#FFA500" p-id="15441"></path><path d="M738.91328 479.51872m-75.31008 0a75.31008 75.31008 0 1 0 150.62016 0 75.31008 75.31008 0 1 0-150.62016 0Z" fill="#FFDC7F" p-id="15442"></path><path d="M738.91328 556.1088c-42.22976 0-76.59008-34.36032-76.59008-76.59008s34.36032-76.59008 76.59008-76.59008 76.59008 34.36032 76.59008 76.59008-34.36032 76.59008-76.59008 76.59008z m0-150.62016c-40.82176 0-74.03008 33.20832-74.03008 74.03008s33.20832 74.03008 74.03008 74.03008 74.03008-33.20832 74.03008-74.03008-33.20832-74.03008-74.03008-74.03008z" fill="#FFA500" p-id="15443"></path><path d="M251.03872 474.46016l-0.1536-0.14848v-7.45984c0-0.1536 0.0512-0.2304 0.1536-0.2304H303.2576c0.1024 0 0.1536 0.0768 0.1536 0.2304v7.45984l-0.1536 0.14848h-11.8784v32.19968c0 0.0512 0.0256 0.0768 0.0768 0.0768h11.87328c0.1536 0 0.2304 0.0256 0.2304 0.0768v7.61344c0 0.1024-0.0768 0.14848-0.2304 0.14848l-21.08416 0.0768c-0.0512 0-0.0768-0.0256-0.0768-0.0768v-40.1152h-9.74336l-0.60928 17.3568-10.19904 22.8352c0 0.0512-0.0512 0.08192-0.1536 0.08192h-11.0336l11.5712-23.98208 0.53248-16.29184h-11.4944z m2.6624-16.9728c-0.0512 0-0.0768-0.0256-0.0768-0.0768v-7.53664c0-0.1024 0.0256-0.14848 0.0768-0.14848h46.88896c0.0512 0 0.0768 0.0512 0.0768 0.14848v7.53664c0 0.0512-0.0256 0.0768-0.0768 0.0768h-46.88896zM387.97312 451.09248l8.90368-4.26496v4.72064h20.93056v11.19232h-8.90368v-3.65568h-32.42496v3.65568h-9.05728v-11.19232h20.55168v-0.45568z m0.4608 10.50112h8.98048v13.24544h15.98464v40.64768h-9.05728v-8.90368h-23.74656v8.90368h-9.28768v-40.64768h17.1264v-13.24544z m-3.57888 12.1088h-9.0624l-1.59744-10.04544h8.832l1.82784 10.04544z m-4.26496 8.6784v4.49024h23.74656v-4.49024h-23.74656z m0 12.17536v4.26496h23.74656v-4.26496h-23.74656z m28.7744-20.85376H400.2304l1.90464-10.04544h8.90368l-1.67424 10.04544zM483.50208 451.62496h9.21088v-4.03456h8.6016v4.03456h13.47072v-4.03456h8.6016v4.03456h9.73824v7.22944h-9.73824v3.5072h-8.6016v-3.5072h-13.47072v3.5072h-8.6016v-3.5072h-9.21088v-7.22944z m2.36032 19.71712c-0.1024 0-0.1536-0.0768-0.1536-0.2304v-6.99904c0-0.1536 0.0512-0.2304 0.1536-0.2304h44.90752c0.10752 0 0.1536 0.0512 0.1536 0.1536v38.51264h-14.61248c-0.0512 0-0.0768-0.0512-0.0768-0.1536v-7.15264h6.08256v-23.90016h-16.7424v43.54048H496.896v-43.54048h-11.0336zM599.51104 498.74432c-0.10752 0-0.1536-0.0256-0.1536-0.08192l0.75776-42.24512c0-0.14848 0.0256-0.22528 0.08192-0.22528l6.85056 0.0768v0.22528l-0.68608 42.16832c0 0.05632-0.03072 0.08192-0.08192 0.08192h-6.76864z m8.90368-50.46784c0-0.0512 0.0256-0.0768 0.0768-0.0768h7.91552c0.0512 0 0.0768 0.0256 0.0768 0.0768v22.8352h4.18816c0.0512 0 0.0768 0.03072 0.0768 0.08192v8.3712c0 0.10752-0.0256 0.1536-0.0768 0.1536h-4.18816v35.61984h-8.064V448.27648z m13.01504 25.27232h3.80416l1.98144-14.6944h-6.08768v-7.30624h7.00416l0.53248-3.65568h7.76704l-0.45568 3.65568h11.41248v0.3072h0.2304v21.69344h1.21344v7.15264h-16.8192l-4.64384 34.32448h-7.83872l4.64384-34.32448h-2.7392V473.5488z m13.62432-14.6944l-2.05312 14.6944h6.62016v-14.6944h-4.56704z m13.32224 56.17664h-7.76704l-6.01088-33.33632h7.83872l5.9392 33.33632zM735.90784 477.19936h-21.68832v-25.27232c0-0.1024 0.0512-0.14848 0.14848-0.14848l50.46272-4.57216c0.10752 0.10752 0.1536 0.1792 0.1536 0.2304v7.38304l-0.1536 0.0768-41.63584 3.80416v11.0336h12.70784v-9.05728h8.7552v9.05728h20.47488v7.45984h-20.47488v37.83168h-14.45888v-7.60832h5.70368v-30.21824z m-12.25216 37.83168h-9.12896l5.8624-31.73888h8.98048l-5.71392 31.73888z m41.33376 0h-9.0624l-5.7856-31.73888h9.0624l5.7856 31.73888z" fill="#F15A24" p-id="15444"></path><path d="M344.064 722.25792H258.048a21.3504 21.3504 0 0 1-21.32992-21.32992 21.35552 21.35552 0 0 1 21.32992-21.33504h38.4v4.78208h-38.4a16.56832 16.56832 0 0 0-16.55296 16.55296 16.57344 16.57344 0 0 0 16.55296 16.54784h86.016v4.78208z" fill="#FFDC7F" p-id="15445"></path><path d="M352.256 744.27904H110.08v-4.78208h242.176c4.8128 0 8.87808-4.06528 8.87808-8.87296s-4.06528-8.87296-8.87808-8.87296H257.024v-4.78208h95.232c7.3984 0 13.65504 6.25664 13.65504 13.65504s-6.25664 13.65504-13.65504 13.65504z" fill="#FFDC7F" p-id="15446"></path><path d="M351.744 722.25792H265.728a21.3504 21.3504 0 0 1-21.32992-21.32992 21.35552 21.35552 0 0 1 21.32992-21.33504h47.104v4.78208h-47.104a16.56832 16.56832 0 0 0-16.55296 16.55296 16.57344 16.57344 0 0 0 16.55296 16.54784h86.016v4.78208z" fill="#FFDC7F" p-id="15447"></path><path d="M834.048 253.27104h-98.304v-4.78208h98.304c10.54208 0 19.10784-8.576 19.10784-19.11296s-8.57088-19.11296-19.10784-19.11296h-241.152v-4.78208h241.152c13.16864 0 23.88992 10.72128 23.88992 23.89504s-10.71616 23.89504-23.88992 23.89504z" fill="#FFDC7F" p-id="15448"></path><path d="M913.92 278.35904h-187.904c-8.51456 0-15.19104-6.67648-15.19104-15.19104s6.67648-15.19104 15.19104-15.19104h109.056v4.78208h-109.056c-5.84192 0-10.40896 4.57216-10.40896 10.40896s4.57216 10.40896 10.40896 10.40896h187.904v4.78208z" fill="#FFDC7F" p-id="15449"></path><path d="M824.832 253.27104H727.04v-4.78208h97.792c10.54208 0 19.11296-8.576 19.11296-19.11296s-8.576-19.11296-19.11296-19.11296h-250.88v-4.78208h250.88c13.17376 0 23.89504 10.72128 23.89504 23.89504s-10.72128 23.89504-23.89504 23.89504z" fill="#FFDC7F" p-id="15450"></path></svg>