<?xml version="1.0" standalone="no"?><!DOCTYPE svg PUBLIC "-//W3C//DTD SVG 1.1//EN" "http://www.w3.org/Graphics/SVG/1.1/DTD/svg11.dtd"><svg t="1580704389844" class="icon" viewBox="0 0 1024 1024" version="1.1" xmlns="http://www.w3.org/2000/svg" p-id="2268" width="16" height="16" xmlns:xlink="http://www.w3.org/1999/xlink"><defs><style type="text/css"></style></defs><path d="M512.06656 9.32352c-276.86912 0-501.34528 224.47616-501.34528 501.34528s224.47616 501.34528 501.34528 501.34528 501.34528-224.47616 501.34528-501.34528S788.99712 9.32352 512.06656 9.32352zM752.5888 695.10144c-0.94208 4.8896-5.888 11.02848-9.6512 14.85312-48.94208 60.288-126.592 97.13664-206.23872 97.13664-30.83264 0-61.35296-5.3248-90.55744-15.85664-66.99008-23.75168-120.88832-72.44288-151.53152-137.11872-30.83264-64.98816-34.52928-138.05568-10.2144-205.80352 38.22592-106.72128 139.81184-178.41664 252.80512-178.41664 28.45184 0 56.6528 4.51072 83.91168 13.40928 2.3808-6.5792 4.57216-12.78464 6.76864-18.54976l4.63872-13.53728c1.9456-5.76512 3.57376-10.3424 4.7616-13.34784 2.57024-9.90208 9.27232-17.79712 18.23744-21.43232 10.7776-5.57568 33.27488-0.5632 40.9856 14.66368l6.016 13.66016 48.8192 104.97024c3.44576 7.1424 4.13696 14.66368 2.25792 22.68672-2.06848 8.45824-7.89504 15.47776-16.48128 19.74272l-123.392 57.52832c-14.4128 3.75808-29.89056-3.5072-36.6592-16.7936-4.25984-10.46528-3.88608-20.61824 0.31232-28.57472 0.87552-2.63168 2.25792-6.45632 3.88608-11.08992l5.4528-15.16544c1.56672-4.70016 3.38432-9.90208 5.26336-15.35488-16.7936-5.26336-35.78368-8.27392-55.08608-8.27392-77.95712 0-147.83488 49.00864-173.90592 122.01472-34.21696 96.00512 15.72864 201.91744 111.23712 235.94496 73.94816 26.4448 159.73888 1.31584 206.99136-59.22304 12.40576-14.16192 30.52032-18.6112 46.56128-12.65664 10.46528 3.44576 19.49184 11.65824 24.25344 22.2464C756.72576 673.16736 756.9152 684.94848 752.5888 695.10144z" p-id="2269" fill="#DAA520"></path></svg>