<?xml version="1.0" standalone="no"?><!DOCTYPE svg PUBLIC "-//W3C//DTD SVG 1.1//EN" "http://www.w3.org/Graphics/SVG/1.1/DTD/svg11.dtd"><svg t="1580704130381" class="icon" viewBox="0 0 1024 1024" version="1.1" xmlns="http://www.w3.org/2000/svg" p-id="1494" width="16" height="16" xmlns:xlink="http://www.w3.org/1999/xlink"><defs><style type="text/css"></style></defs><path d="M512 0a512 512 0 1 0 512 512A512 512 0 0 0 512 0z m271.542857 783.542857a9.508571 9.508571 0 0 1-7.862857 2.742857l-288.365714-37.668571a9.325714 9.325714 0 0 1-5.302857-2.742857 9.874286 9.874286 0 0 1-2.742858-5.302857 9.508571 9.508571 0 0 1 5.668572-10.057143l115.748571-50.102857-64.914285-64.914286-72.045715-72.228572-54.857143-54.857142-64.914285-64.914286-50.102857 115.748571a9.508571 9.508571 0 0 1-10.057143 5.668572 9.874286 9.874286 0 0 1-5.302857-2.742857 9.325714 9.325714 0 0 1-2.742858-5.302858L237.714286 248.32a9.508571 9.508571 0 0 1 10.605714-10.605714l288.365714 37.851428a8.96 8.96 0 0 1 8.045715 7.862857 9.508571 9.508571 0 0 1-5.668572 10.057143l-115.748571 50.102857 64.914285 64.914286L554.605714 475.428571l60.891429 60.891429 64.914286 64.914286L731.428571 484.937143a9.508571 9.508571 0 0 1 10.057143-5.668572 8.96 8.96 0 0 1 7.862857 8.045715L786.285714 775.68a9.508571 9.508571 0 0 1-2.742857 7.862857z" p-id="1495" fill="#008000"></path></svg>